<svg xmlns="http://www.w3.org/2000/svg" id="Layer_1" version="1" viewBox="0 0 1762 299.8" width="1762" height="299.8"><style>.st0{fill:#231f20}</style><path d="M271.6 130.2c0 22.5-7.3 38-19.6 47.3-10.4 7.6-24.4 11.5-40.6 11.5-12 0-28.2-3.5-39.5-12.9-4.5-4-8-9.5-8-16.2 0-10.4 8-18.4 18.2-18.4 5.3 0 9.5 2 12.9 5.3 6.5 5.6 12 6.7 16 6.7 6.2 0 10.4-1.3 13.6-3.8 5.3-4 6.7-12 6.7-22.9V48.9c0-10.7 9.3-19.5 19.8-19.5 11.3 0 19.8 8.7 19.8 19.5v81.3h.7zm26.3-32.6c0-9.6 8.2-17.6 18.4-17.6s18.4 8 18.4 17.6v42.2c0 4 .7 8 2.2 11.3 2.5 4.7 6.9 8 14.7 8 7.5 0 12-3.3 14.7-8 1.5-3.3 2.2-6.9 2.2-11.3V97.6c0-9.6 8.2-17.6 18.4-17.6s18.4 8 18.4 17.6v43.5c0 13.6-3.8 24.2-10 31.6-9.5 11.5-25.1 16.4-43.8 16.4-18.7 0-34-4.9-43.8-16.4-6.5-7.5-10-17.8-10-31.6l.2-43.5zm194.2 14.9c-5.3 0-8.9-1.3-12-2.2-2.9-1.3-5.5-2.2-9.5-2.2-3.8 0-6.9 1.3-6.9 4.2 0 3.3 3.5 4.7 8 6.7 6.2 2.5 12.4 4 19.8 8 12.4 6.5 16.7 16.7 16.7 26.9 0 19.5-17.5 35.1-45.8 35.1-9.5 0-19.5-.7-27.3-3.8-7.5-2.7-12.9-8.7-12.9-16.4 0-8 6.5-14.4 14.4-14.4 4.9 0 8.9 2.2 12.9 4.2 3.5 1.8 6.7 2.9 11.3 2.9 4.9 0 8.7-1.8 8.7-5.6 0-3.3-2.7-5.3-6.7-6.9-6.7-2.9-13.5-4.5-20.4-8-11.3-5.5-17.5-15.1-17.5-28.9 0-19.8 14.9-32.9 42.6-32.9 10 0 18.7.9 25.1 2.9 9.3 3.3 14 8.7 14 15.6-.3 8.3-6.5 14.8-14.5 14.8zm41-30.5V67.3c0-10 8.2-17.8 18.4-17.8 9.6 0 18.4 8 18.4 17.8V82h14.7c7.6 0 14.2 6.5 14.2 14.4 0 7.6-6.5 14.7-14.2 14.7h-14.7v37.8c0 7.5 2.7 9.6 6.5 9.6 3.5 0 6.2-2 9.5-4 2.2-1.5 5.3-2.7 8.9-2.7 8.2 0 14 6.7 14 14.7 0 8.2-6.7 14.7-16 18.4-6.9 2.9-15.5 4.5-23.5 4.5-25.3 0-36-17.5-36-37.3V111h-6c-8 0-14.2-6.7-14.2-14.7S519.2 82 527.2 82h5.9zm212.2 104.6h-44c-11.3 0-19.8-8.7-19.8-19.5V50.9c0-10.7 8.9-19.5 19.8-19.5h36.2c22.5 0 47.3 12.7 47.3 39.3 0 14.7-6.2 26.9-18.9 32.9v.5c22.5 5.6 31.6 19.6 31.6 40 .1 29-26.6 42.5-52.2 42.5zM730.2 64h-8.7v27.8h6.7c4.9 0 16.2-1.3 16.2-15.1 0-8-6-12.7-14.2-12.7zm2.9 60h-11.6v30.4h14.7c10.7 0 19.6-2 20.2-14.9.1-9.7-6.4-15.5-23.3-15.5zm97.8 5.8c11.6-5.5 26.9-7.5 38.6-8.7v-1.5c0-3.8-.5-6.7-2-8.7-1.5-2.2-4.5-3.5-9.3-3.5-6.2 0-12 2-16.2 4-4 1.5-6.7 2.9-11.3 2.9-7.3 0-13.1-6-13.1-13.1 0-8.7 6.5-12.7 14.7-16 9.5-3.8 20.4-5.5 30.4-5.5 10.7 0 25.1 2 34.4 12 6 6.5 9.5 14.7 9.5 27.6v51.6c0 9.6-8.7 17.6-18.4 17.6-6.2 0-11.6-2.7-14.9-7.3-8.9 6-16.9 7.3-26.5 7.3-19.5 0-33.3-13.5-33.3-33.1-.6-12.5 6.9-20.5 17.4-25.6zm38.6 29.7v-14.9c-4 .2-8.9.5-13.1 1.8-4.5 1.3-8.2 4-8.2 8.4 0 5.5 4 8.2 10.2 8.2 3.1-.1 7.1-1 11.1-3.5zm136.2-33.5l25.3 36c1.8 2.7 2.7 6 2.7 9.3 0 10.2-8.9 17.8-18.2 17.8-5.6 0-11.3-2.7-14.4-7.6L980 148.9l-11.3 9.6v12.7c0 9.6-8.7 17.6-18.4 17.6-10.2 0-18.4-8-18.4-17.6V48c0-10 8.2-17.8 18.4-17.8s18.4 8 18.4 17.8v68.6l33.3-32.4c3.3-2.9 6.9-4.2 11.3-4.2 10.2 0 17.1 8.7 17.1 17.1 0 4.2-1.5 8.7-4.7 11.6l-20 17.3zm138.7 42.7c0 7.5-4.9 12.4-14.9 16.2s-19.6 4-28.2 4c-17.6 0-31.8-5.3-41.5-14.7-10.4-9.6-16.2-24.4-16.2-41.3 0-16.2 6.5-29.6 16-39.1 9.3-8.9 22.2-14.2 38.6-14.2 17.5 0 29.6 5.5 37.8 13.6 10.4 10.4 13.1 22.5 13.1 32 0 11.5-6.7 18.4-17.6 18.4h-48.9c1.3 4.9 3.3 8.7 6.2 11.5 3.8 3.5 8.9 5.3 15.5 5.3 6 0 10-.9 13.5-2 5.5-1.8 8.9-4.2 13.6-4.2 7.4-.2 13 6.5 13 14.5zm-31.3-46.7c-.5-3.8-1.3-6.5-3.8-9.5-2.5-2.9-6.5-4.5-11.5-4.5-4.5 0-9.3 1.3-11.6 4-2.2 2.5-3.8 5.6-4.2 9.6h31.1v.4zm113-84.9c0-11.6 9.5-20.9 20.9-20.9 11.6 0 20.9 9.5 20.9 20.9 0 11.6-9.5 20.9-20.9 20.9-11.8 0-20.9-9.1-20.9-20.9zm20.9 42.5c10.2 0 18.4 8 18.4 17.6V171c0 9.6-8.7 17.6-18.4 17.6-10.2 0-18.4-8-18.4-17.6V97.4c-.2-9.8 8.2-17.8 18.4-17.8zm51.6 2.4V67.3c0-10 8.2-17.8 18.4-17.8 9.6 0 18.4 8 18.4 17.8V82h14.7c7.6 0 14.2 6.5 14.2 14.4 0 7.6-6.5 14.7-14.2 14.7h-14.7v37.8c0 7.5 2.7 9.6 6.5 9.6 3.5 0 6.2-2 9.5-4 2.2-1.5 5.3-2.7 8.9-2.7 8.2 0 14 6.7 14 14.7 0 8.2-6.7 14.7-16 18.4-6.9 2.9-15.5 4.5-23.5 4.5-25.3 0-36-17.5-36-37.3V111h-6c-8 0-14.2-6.7-14.2-14.7s6.2-14.4 14.2-14.4l5.8.1zm136.6 4.2l-8.7 33.6c-1.5 6-3.8 12-12.2 12-8.7 0-10.4-6.2-12-12l-8.9-33.6c-1.5-6-4-15.5-4-24.4 0-20.2 8-32.4 24.9-32.4s24.9 12 24.9 32.4c0 8.9-2.4 18.4-4 24.4zm-20.9 102.4c-12 0-21.8-9.6-21.8-21.8 0-12.2 9.6-21.8 21.8-21.8s21.8 9.5 21.8 21.8c0 12.1-9.6 21.8-21.8 21.8zM167.4 257.3c0-16.9 13.6-29.8 31.3-29.8 3.5 0 6.9.5 10.2 1.3 3.3.9 5.6 2.5 5.6 5.3 0 2.2-1.8 4.2-4.2 4.2-1.3 0-2.5-.7-4.5-1.3-2-.7-4.7-1.3-8.2-1.3-12.2 0-21.5 9.6-21.1 21.5 0 12 7.6 18.2 17.6 18.2 3.8 0 6.5-.5 8.2-.9 2-.7 2.9-1.3 4.2-1.3 2.5 0 3.8 1.8 3.8 3.8 0 2.5-2 4-4.9 4.9-3.5 1.3-8.2 1.8-12.2 1.8-13.3-.6-25.8-8.4-25.8-26.4zm64.5-23.3l-2.2 16.9h.2c1.3-1.5 2.5-2.7 4-3.5 2.2-1.3 4.7-2 6.9-2 3.8 0 6.5 1.3 8.2 3.5 2 2.5 2.9 5.6 2.9 9.6 0 1.5-.2 3.8-.5 5.6l-2 15.1c-.5 2.7-2.2 3.8-4 3.8-2.2 0-4-.9-4-3.8 0-.9.2-2 .2-2.9l1.5-12c.2-1.8.5-3.5.5-4.7 0-2-.5-4.2-1.5-5.6-.9-.9-2.5-1.8-4.5-1.8-5.5 0-9.3 5.6-10 10.9l-2.2 16.4c-.5 2.7-2.2 3.8-4.2 3.8s-4-.9-4-3.8c0-.9 0-2 .2-2.9l6.5-45.3c.5-2.5 2-3.8 4-3.8s4 1.3 4 3.8c.2.9 0 1.8 0 2.7zm54.6 20.2c-.9 0-2-.5-3.3-.9-.9-.5-2.2-.7-4-.7-2.7 0-4.7 1.3-6 2.9-2 2.5-2.9 5.6-3.3 8.4l-2.2 15.6c-.5 2.7-2.2 3.8-4.2 3.8s-4-.9-4-3.8c0-.9 0-2 .2-2.9l3.8-27.3c.5-2.2 2-3.3 3.8-3.3 2 0 3.5.9 3.5 3.5 0 .9 0 1.8-.2 2.5.9-1.8 2.5-2.9 4-4.2 2-1.3 4.2-2 7.3-2 2.2 0 4 .5 5.5 1.3 2 .9 2.9 2.5 2.9 4s-1.5 3.1-3.8 3.1zm17.4-2l-3.8 27.1c-.5 2.7-2.2 3.8-4.2 3.8s-4-.9-4-3.8c0-.9 0-2 .2-2.9l3.8-27.1c.5-2.7 2-3.8 4-3.8s4 .9 4 3.8c.4.9.4 2 0 2.9zm-.7-17.8c-2.7 0-4.9-2.2-4.9-4.9s2.2-4.9 4.9-4.9 4.9 2.2 4.9 4.9-2.2 4.9-4.9 4.9zm29.6 18.5c-.7 0-1.8-.2-2.7-.7-1.5-.5-2.7-.9-4.9-.9-1.5 0-3.3.2-4.7.9-.9.7-1.8 1.8-1.8 2.9 0 2.2 1.5 3.3 4 4.7 2.9 1.5 6.2 2.7 8.7 4.9 1.8 1.5 2.9 3.8 2.9 6.7 0 3.8-1.5 6.5-4.2 8.4-2.7 2-6.2 2.9-10.7 2.9-4 0-7.3-.5-9.6-2-1.8-.7-2.9-2-2.9-3.5 0-1.8 1.5-2.9 3.3-2.9.9 0 2.2.7 3.3.9 1.5.7 3.5 1.5 6.5 1.5 1.8 0 3.5-.2 4.9-1.3.9-.7 1.8-2 1.8-3.8 0-2-1.8-3.3-4-4.7-2.9-1.8-6.7-3.3-9.3-5.6-1.5-1.5-2.5-3.5-2.5-6 0-3.5 1.5-6 4-7.6 2.7-2 6.5-2.9 10.7-2.9 3.5 0 6 .5 7.6 1.3 2 .9 2.7 2 2.7 3.3-.1 2.1-1.4 3.5-3.1 3.5zm10.8 14l2-14.4h-2.7c-1.8 0-3.3-1.3-3.3-3.3 0-1.8 1.5-3.3 3.3-3.3h3.5l.9-6.2c.2-2.5 2-3.8 4-3.8 2.2 0 4 .9 4 3.8 0 .9 0 1.8-.2 2.7l-.5 3.3h8.7c1.8 0 3.3 1.5 3.3 3.3s-1.5 3.3-3.3 3.3h-9.6l-2 14c-.2 1.8-.5 3.5-.5 4.5 0 1.5.5 2.9 1.3 3.8.7.9 2 1.3 3.5 1.3s2.7-.2 3.8-.7c1.3-.5 2-.9 2.9-.9 1.8 0 2.9 1.3 2.9 3.3 0 1.5-.9 2.7-2.7 3.5-2.2 1.3-5.6 2-9.3 2-3.8 0-6.5-.9-8.2-2.7-2-1.8-2.9-4.5-2.9-7.6.5-1.9.7-4.1 1.1-5.9zm84-2.7l-2.2 15.1c-.5 2.7-2 3.8-4 3.8s-4-.9-4-3.8c0-.9 0-2 .2-2.9l1.8-12c.2-1.8.5-3.8.5-4.7 0-2.5-.5-4.5-1.5-5.6-.9-.9-2.2-1.8-4.2-1.8-2.7 0-4.7.9-6.5 2.9s-3.3 5.6-3.8 9.3l-2 15.1c-.2 2.7-2 3.8-4 3.8-2.2 0-4-.9-4-3.8 0-.9 0-2 .2-2.9l1.8-12c.2-1.8.5-3.8.5-4.7 0-2.5-.5-4.5-1.8-5.6-.9-.9-2.5-1.8-4.2-1.8-2.7 0-4.7.9-6.5 2.9-2.2 2.5-3.3 6-3.8 8.9l-2.2 15.5c-.5 2.7-2.2 3.8-4.2 3.8s-4-.9-4-3.8c0-.9 0-2 .2-2.9l3.8-27.3c.2-2.2 2-3.3 3.8-3.3 2 0 3.5.9 3.5 3.5 0 .9 0 1.8-.2 2.5 1.3-1.8 2.9-2.9 4.7-4 2.2-1.5 4.7-2 7.5-2 2.7 0 4.9.7 6.5 2 1.5 1.3 2.5 2.9 2.9 4.9h.2c1.3-1.8 2.9-3.5 5.3-4.9 2.5-1.5 5.3-2.2 8.2-2.2 3.8 0 6.5.9 8.2 2.9 2.5 2.5 3.3 6.2 3.3 10.2.5.7.2 3.1 0 4.9zm41.8-11.6l-3.8 27.1c-.2 2.5-2 3.5-3.8 3.5-2 0-3.5-.9-3.5-3.3-2.9 2.2-6 3.3-10 3.3-2.7 0-6.5-.9-9.3-4-2.2-2.5-3.8-6.2-3.8-11.5 0-6.7 2.5-11.6 6.2-15.5 4.9-4.7 11.6-6.9 18.2-6.9 2.5 0 4.9.2 6.9.5 2 .5 2.9 1.5 2.9 3.8.2 1 .2 1.9 0 3zm-12.5 0c-3.3.5-6.7 1.8-9.3 4.2-2.5 2.5-4 6.2-4 10.4 0 2.9.7 5.3 2 6.5 1.5 1.8 3.5 2.5 5.3 2.5 2.7 0 4.9-.7 7.5-3.3l2.9-20.7c-1.3 0-2.6 0-4.4.4zm41.2.3c-.7 0-1.8-.2-2.7-.7-1.5-.5-2.7-.9-4.9-.9-1.5 0-3.3.2-4.7.9-.9.7-1.8 1.8-1.8 2.9 0 2.2 1.5 3.3 4 4.7 2.9 1.5 6.2 2.7 8.7 4.9 1.8 1.5 2.9 3.8 2.9 6.7 0 3.8-1.5 6.5-4.2 8.4-2.7 2-6.2 2.9-10.7 2.9-4 0-7.3-.5-9.6-2-1.8-.7-2.9-2-2.9-3.5 0-1.8 1.5-2.9 3.3-2.9.9 0 2.2.7 3.3.9 1.5.7 3.5 1.5 6.5 1.5 1.8 0 3.5-.2 4.9-1.3.9-.7 1.8-2 1.8-3.8 0-2-1.8-3.3-4-4.7-2.9-1.8-6.7-3.3-9.3-5.6-1.5-1.5-2.5-3.5-2.5-6 0-3.5 1.5-6 4-7.6 2.7-2 6.5-2.9 10.7-2.9 3.5 0 6 .5 7.6 1.3 2 .9 2.7 2 2.7 3.3.2 2.1-1.2 3.5-3.1 3.5zm69.9-17.1h-24.4l-2.2 15.1h18.9c2.2 0 4 1.8 4 4s-1.8 4-4 4h-19.8l-2.2 15.5h26.2c2.2 0 4 1.8 4 4s-1.8 4-4 4h-31.1c-2.7 0-4.7-1.5-4.5-4.9l6.5-45.3c.5-2.7 2.2-4.2 4.5-4.2h28.4c2.2 0 4 1.8 4 4-.3 2-2 3.8-4.3 3.8zm41.8-2l-6.2 44.6c-.2 2-.9 3.3-4.7 4-2 .2-4.5.5-6.9.5-4.7 0-10-1.3-13.6-4.5-2.9-2.7-4.9-6.5-4.9-12.2 0-4.9 1.8-9.5 4.7-12.9 3.3-3.8 8-6 12.9-6.9 3.3-.9 6.9-.9 9.3-.9l2-14.7c.2-2.5 2-3.8 4-3.8 2.2 0 4 1.3 4 3.8-.2 1.4-.6 2.3-.6 3zm-16.2 19.5c-3.3.5-6.7 2-9.3 4.7-1.8 2.2-2.9 4.9-2.9 8.4 0 3.3.9 5.5 2.7 6.9 2.2 2.2 5.6 2.7 8 2.7 1.3 0 2.5 0 3.8-.2l3.3-23.1c-1.8-.1-3.8 0-5.6.6zm32.2-1.1l-3.8 27.1c-.5 2.7-2.2 3.8-4.2 3.8s-4-.9-4-3.8c0-.9 0-2 .2-2.9l3.8-27.1c.5-2.7 2-3.8 4-3.8s4 .9 4 3.8c.2.9.2 2 0 2.9zm-.7-17.8c-2.7 0-4.9-2.2-4.9-4.9s2.2-4.9 4.9-4.9 4.9 2.2 4.9 4.9-2.2 4.9-4.9 4.9zm9.8 32.5l2-14.4h-2.7c-1.8 0-3.3-1.3-3.3-3.3 0-1.8 1.5-3.3 3.3-3.3h3.5l.9-6.2c.2-2.5 2-3.8 4-3.8 2.2 0 4 .9 4 3.8 0 .9 0 1.8-.2 2.7l-.5 3.3h8.7c1.8 0 3.3 1.5 3.3 3.3s-1.5 3.3-3.3 3.3H645l-2 13.8c-.2 1.8-.5 3.5-.5 4.5 0 1.5.5 2.9 1.3 3.8.7.9 2 1.3 3.5 1.3s2.7-.2 3.8-.7c1.3-.5 2-.9 2.9-.9 1.8 0 2.9 1.3 2.9 3.3 0 1.5-.9 2.7-2.7 3.5-2.2 1.3-5.6 2-9.3 2-3.8 0-6.5-.9-8.2-2.7-2-1.8-2.9-4.5-2.9-7.6.4-1.7.7-3.9 1.1-5.7zm38.2-14.7l-3.8 27.1c-.5 2.7-2.2 3.8-4.2 3.8s-4-.9-4-3.8c0-.9 0-2 .2-2.9l3.8-27.1c.5-2.7 2-3.8 4-3.8s4 .9 4 3.8c.2.9.2 2 0 2.9zm-.6-17.8c-2.7 0-4.9-2.2-4.9-4.9s2.2-4.9 4.9-4.9 4.9 2.2 4.9 4.9c-.1 2.7-2.5 4.9-4.9 4.9zm38.2 41.8c-3.3 4.2-8.2 6.7-14.4 6.7-4.9 0-9.3-1.8-12.2-4.7-2.9-2.9-4.5-7.3-4.5-12 0-5.5 1.5-10.7 4.7-14.4 3.3-4.2 8.2-6.7 14.4-6.7 4.9 0 9.3 1.8 12.2 4.7 2.9 2.9 4.5 6.9 4.5 11.6-.1 6.1-1.6 11-4.7 14.8zm-5.6-20.9c-1.5-2-4-3.3-6.7-3.3-3.5 0-6.5 2-8.2 4.9-1.5 2.5-2.5 5.5-2.5 8.9 0 2.9.7 5.5 2.2 7.5s4 3.3 6.7 3.3c3.5 0 6.5-2 8.2-4.9 1.5-2.5 2.5-5.5 2.5-8.7 0-3.5-.8-6.1-2.2-7.7zm16.9 20.9l3.8-27.3c.2-2.2 2-3.3 3.8-3.3 2 0 3.5.9 3.5 3.5 0 .9-.2 1.5-.2 2.5 2.7-4 7.3-6.2 12.2-6.2 3.8 0 6.5 1.3 8.2 3.5 2.5 2.9 2.9 6.7 2.9 9.6 0 1.5-.2 3.8-.5 5.6l-2.2 15.1c-.2 2.5-2 3.8-4 3.8s-4-.9-4-3.8c0-.9 0-1.8.2-2.9l1.8-12c.2-1.8.5-3.8.5-4.7 0-2.2-.5-4.2-1.5-5.6-.9-.9-2.5-2-4.5-2-2.5 0-4.7.9-6.5 2.9-2.2 2.5-3.3 6-3.8 8.9l-2.2 15.5c-.5 2.5-2.2 3.8-4 3.8-2.2 0-4-.9-4-3.8.3-.9.5-1.6.5-3.1z" class="st0"/></svg>