<?xml version="1.0" encoding="utf-8"?>
<!-- Generator: Adobe Illustrator 24.0.3, SVG Export Plug-In . SVG Version: 6.00 Build 0)  -->
<svg version="1.0" id="Layer_1" xmlns="http://www.w3.org/2000/svg" xmlns:xlink="http://www.w3.org/1999/xlink" x="0px" y="0px"
	 viewBox="0 0 1762 299.8" style="enable-background:new 0 0 1762 299.8;" xml:space="preserve">
<style type="text/css">
	.st0{fill:#231F20;}
</style>
<path class="st0" d="M271.6,130.2c0,22.5-7.3,38-19.6,47.3c-10.4,7.6-24.4,11.5-40.6,11.5c-12,0-28.2-3.5-39.5-12.9
	c-4.5-4-8-9.5-8-16.2c0-10.4,8-18.4,18.2-18.4c5.3,0,9.5,2,12.9,5.3c6.5,5.6,12,6.7,16,6.7c6.2,0,10.4-1.3,13.6-3.8
	c5.3-4,6.7-12,6.7-22.9V48.9c0-10.7,9.3-19.5,19.8-19.5c11.3,0,19.8,8.7,19.8,19.5v81.3C271,130.2,271.6,130.2,271.6,130.2z
	 M297.9,97.6c0-9.6,8.2-17.6,18.4-17.6s18.4,8,18.4,17.6v42.2c0,4,0.7,8,2.2,11.3c2.5,4.7,6.9,8,14.7,8c7.5,0,12-3.3,14.7-8
	c1.5-3.3,2.2-6.9,2.2-11.3V97.6c0-9.6,8.2-17.6,18.4-17.6c10.2,0,18.4,8,18.4,17.6v43.5c0,13.6-3.8,24.2-10,31.6
	c-9.5,11.5-25.1,16.4-43.8,16.4c-18.7,0-34-4.9-43.8-16.4c-6.5-7.5-10-17.8-10-31.6L297.9,97.6z M492.1,112.5c-5.3,0-8.9-1.3-12-2.2
	c-2.9-1.3-5.5-2.2-9.5-2.2c-3.8,0-6.9,1.3-6.9,4.2c0,3.3,3.5,4.7,8,6.7c6.2,2.5,12.4,4,19.8,8c12.4,6.5,16.7,16.7,16.7,26.9
	c0,19.5-17.5,35.1-45.8,35.1c-9.5,0-19.5-0.7-27.3-3.8c-7.5-2.7-12.9-8.7-12.9-16.4c0-8,6.5-14.4,14.4-14.4c4.9,0,8.9,2.2,12.9,4.2
	c3.5,1.8,6.7,2.9,11.3,2.9c4.9,0,8.7-1.8,8.7-5.6c0-3.3-2.7-5.3-6.7-6.9c-6.7-2.9-13.5-4.5-20.4-8c-11.3-5.5-17.5-15.1-17.5-28.9
	c0-19.8,14.9-32.9,42.6-32.9c10,0,18.7,0.9,25.1,2.9c9.3,3.3,14,8.7,14,15.6C506.3,106,500.1,112.5,492.1,112.5L492.1,112.5z
	 M533.1,82V67.3c0-10,8.2-17.8,18.4-17.8c9.6,0,18.4,8,18.4,17.8V82h14.7c7.6,0,14.2,6.5,14.2,14.4c0,7.6-6.5,14.7-14.2,14.7h-14.7
	v37.8c0,7.5,2.7,9.6,6.5,9.6c3.5,0,6.2-2,9.5-4c2.2-1.5,5.3-2.7,8.9-2.7c8.2,0,14,6.7,14,14.7c0,8.2-6.7,14.7-16,18.4
	c-6.9,2.9-15.5,4.5-23.5,4.5c-25.3,0-36-17.5-36-37.3v-41.1h-6c-8,0-14.2-6.7-14.2-14.7S519.2,82,527.2,82L533.1,82L533.1,82z
	 M745.3,186.6h-44c-11.3,0-19.8-8.7-19.8-19.5V50.9c0-10.7,8.9-19.5,19.8-19.5h36.2c22.5,0,47.3,12.7,47.3,39.3
	c0,14.7-6.2,26.9-18.9,32.9v0.5c22.5,5.6,31.6,19.6,31.6,40C797.6,173.1,770.9,186.6,745.3,186.6L745.3,186.6z M730.2,64h-8.7v27.8
	h6.7c4.9,0,16.2-1.3,16.2-15.1C744.4,68.7,738.4,64,730.2,64L730.2,64z M733.1,124h-11.6v30.4h14.7c10.7,0,19.6-2,20.2-14.9
	C756.5,129.8,750,124,733.1,124L733.1,124z M830.9,129.8c11.6-5.5,26.9-7.5,38.6-8.7v-1.5c0-3.8-0.5-6.7-2-8.7
	c-1.5-2.2-4.5-3.5-9.3-3.5c-6.2,0-12,2-16.2,4c-4,1.5-6.7,2.9-11.3,2.9c-7.3,0-13.1-6-13.1-13.1c0-8.7,6.5-12.7,14.7-16
	c9.5-3.8,20.4-5.5,30.4-5.5c10.7,0,25.1,2,34.4,12c6,6.5,9.5,14.7,9.5,27.6v51.6c0,9.6-8.7,17.6-18.4,17.6c-6.2,0-11.6-2.7-14.9-7.3
	c-8.9,6-16.9,7.3-26.5,7.3c-19.5,0-33.3-13.5-33.3-33.1C812.9,142.9,820.4,134.9,830.9,129.8L830.9,129.8z M869.5,159.5v-14.9
	c-4,0.2-8.9,0.5-13.1,1.8c-4.5,1.3-8.2,4-8.2,8.4c0,5.5,4,8.2,10.2,8.2C861.5,162.9,865.5,162,869.5,159.5z M1005.7,126l25.3,36
	c1.8,2.7,2.7,6,2.7,9.3c0,10.2-8.9,17.8-18.2,17.8c-5.6,0-11.3-2.7-14.4-7.6L980,148.9l-11.3,9.6v12.7c0,9.6-8.7,17.6-18.4,17.6
	c-10.2,0-18.4-8-18.4-17.6V48c0-10,8.2-17.8,18.4-17.8c10.2,0,18.4,8,18.4,17.8v68.6l33.3-32.4c3.3-2.9,6.9-4.2,11.3-4.2
	c10.2,0,17.1,8.7,17.1,17.1c0,4.2-1.5,8.7-4.7,11.6L1005.7,126L1005.7,126z M1144.4,168.7c0,7.5-4.9,12.4-14.9,16.2s-19.6,4-28.2,4
	c-17.6,0-31.8-5.3-41.5-14.7c-10.4-9.6-16.2-24.4-16.2-41.3c0-16.2,6.5-29.6,16-39.1c9.3-8.9,22.2-14.2,38.6-14.2
	c17.5,0,29.6,5.5,37.8,13.6c10.4,10.4,13.1,22.5,13.1,32c0,11.5-6.7,18.4-17.6,18.4h-48.9c1.3,4.9,3.3,8.7,6.2,11.5
	c3.8,3.5,8.9,5.3,15.5,5.3c6,0,10-0.9,13.5-2c5.5-1.8,8.9-4.2,13.6-4.2C1138.8,154,1144.4,160.7,1144.4,168.7z M1113.1,122
	c-0.5-3.8-1.3-6.5-3.8-9.5c-2.5-2.9-6.5-4.5-11.5-4.5c-4.5,0-9.3,1.3-11.6,4c-2.2,2.5-3.8,5.6-4.2,9.6h31.1V122z M1226.1,37.1
	c0-11.6,9.5-20.9,20.9-20.9c11.6,0,20.9,9.5,20.9,20.9c0,11.6-9.5,20.9-20.9,20.9C1235.2,58,1226.1,48.9,1226.1,37.1z M1247,79.6
	c10.2,0,18.4,8,18.4,17.6v73.8c0,9.6-8.7,17.6-18.4,17.6c-10.2,0-18.4-8-18.4-17.6V97.4C1228.4,87.6,1236.8,79.6,1247,79.6
	L1247,79.6z M1298.6,82V67.3c0-10,8.2-17.8,18.4-17.8c9.6,0,18.4,8,18.4,17.8V82h14.7c7.6,0,14.2,6.5,14.2,14.4
	c0,7.6-6.5,14.7-14.2,14.7h-14.7v37.8c0,7.5,2.7,9.6,6.5,9.6c3.5,0,6.2-2,9.5-4c2.2-1.5,5.3-2.7,8.9-2.7c8.2,0,14,6.7,14,14.7
	c0,8.2-6.7,14.7-16,18.4c-6.9,2.9-15.5,4.5-23.5,4.5c-25.3,0-36-17.5-36-37.3v-41.1h-6c-8,0-14.2-6.7-14.2-14.7s6.2-14.4,14.2-14.4
	L1298.6,82L1298.6,82z M1435.2,86.2l-8.7,33.6c-1.5,6-3.8,12-12.2,12c-8.7,0-10.4-6.2-12-12l-8.9-33.6c-1.5-6-4-15.5-4-24.4
	c0-20.2,8-32.4,24.9-32.4s24.9,12,24.9,32.4C1439.2,70.7,1436.8,80.2,1435.2,86.2z M1414.3,188.6c-12,0-21.8-9.6-21.8-21.8
	c0-12.2,9.6-21.8,21.8-21.8s21.8,9.5,21.8,21.8C1436.1,178.9,1426.5,188.6,1414.3,188.6z M167.4,257.3c0-16.9,13.6-29.8,31.3-29.8
	c3.5,0,6.9,0.5,10.2,1.3c3.3,0.9,5.6,2.5,5.6,5.3c0,2.2-1.8,4.2-4.2,4.2c-1.3,0-2.5-0.7-4.5-1.3c-2-0.7-4.7-1.3-8.2-1.3
	c-12.2,0-21.5,9.6-21.1,21.5c0,12,7.6,18.2,17.6,18.2c3.8,0,6.5-0.5,8.2-0.9c2-0.7,2.9-1.3,4.2-1.3c2.5,0,3.8,1.8,3.8,3.8
	c0,2.5-2,4-4.9,4.9c-3.5,1.3-8.2,1.8-12.2,1.8C179.9,283.1,167.4,275.3,167.4,257.3L167.4,257.3z M231.9,234l-2.2,16.9h0.2
	c1.3-1.5,2.5-2.7,4-3.5c2.2-1.3,4.7-2,6.9-2c3.8,0,6.5,1.3,8.2,3.5c2,2.5,2.9,5.6,2.9,9.6c0,1.5-0.2,3.8-0.5,5.6l-2,15.1
	c-0.5,2.7-2.2,3.8-4,3.8c-2.2,0-4-0.9-4-3.8c0-0.9,0.2-2,0.2-2.9l1.5-12c0.2-1.8,0.5-3.5,0.5-4.7c0-2-0.5-4.2-1.5-5.6
	c-0.9-0.9-2.5-1.8-4.5-1.8c-5.5,0-9.3,5.6-10,10.9l-2.2,16.4c-0.5,2.7-2.2,3.8-4.2,3.8s-4-0.9-4-3.8c0-0.9,0-2,0.2-2.9l6.5-45.3
	c0.5-2.5,2-3.8,4-3.8s4,1.3,4,3.8C232.1,232.2,231.9,233.1,231.9,234L231.9,234z M286.5,254.2c-0.9,0-2-0.5-3.3-0.9
	c-0.9-0.5-2.2-0.7-4-0.7c-2.7,0-4.7,1.3-6,2.9c-2,2.5-2.9,5.6-3.3,8.4l-2.2,15.6c-0.5,2.7-2.2,3.8-4.2,3.8c-2,0-4-0.9-4-3.8
	c0-0.9,0-2,0.2-2.9l3.8-27.3c0.5-2.2,2-3.3,3.8-3.3c2,0,3.5,0.9,3.5,3.5c0,0.9,0,1.8-0.2,2.5c0.9-1.8,2.5-2.9,4-4.2
	c2-1.3,4.2-2,7.3-2c2.2,0,4,0.5,5.5,1.3c2,0.9,2.9,2.5,2.9,4S288.8,254.2,286.5,254.2L286.5,254.2z M303.9,252.2l-3.8,27.1
	c-0.5,2.7-2.2,3.8-4.2,3.8s-4-0.9-4-3.8c0-0.9,0-2,0.2-2.9l3.8-27.1c0.5-2.7,2-3.8,4-3.8c2,0,4,0.9,4,3.8
	C304.3,250.2,304.3,251.3,303.9,252.2z M303.2,234.4c-2.7,0-4.9-2.2-4.9-4.9s2.2-4.9,4.9-4.9c2.7,0,4.9,2.2,4.9,4.9
	S305.9,234.4,303.2,234.4z M332.8,252.9c-0.7,0-1.8-0.2-2.7-0.7c-1.5-0.5-2.7-0.9-4.9-0.9c-1.5,0-3.3,0.2-4.7,0.9
	c-0.9,0.7-1.8,1.8-1.8,2.9c0,2.2,1.5,3.3,4,4.7c2.9,1.5,6.2,2.7,8.7,4.9c1.8,1.5,2.9,3.8,2.9,6.7c0,3.8-1.5,6.5-4.2,8.4
	c-2.7,2-6.2,2.9-10.7,2.9c-4,0-7.3-0.5-9.6-2c-1.8-0.7-2.9-2-2.9-3.5c0-1.8,1.5-2.9,3.3-2.9c0.9,0,2.2,0.7,3.3,0.9
	c1.5,0.7,3.5,1.5,6.5,1.5c1.8,0,3.5-0.2,4.9-1.3c0.9-0.7,1.8-2,1.8-3.8c0-2-1.8-3.3-4-4.7c-2.9-1.8-6.7-3.3-9.3-5.6
	c-1.5-1.5-2.5-3.5-2.5-6c0-3.5,1.5-6,4-7.6c2.7-2,6.5-2.9,10.7-2.9c3.5,0,6,0.5,7.6,1.3c2,0.9,2.7,2,2.7,3.3
	C335.8,251.5,334.5,252.9,332.8,252.9z M343.6,266.9l2-14.4h-2.7c-1.8,0-3.3-1.3-3.3-3.3c0-1.8,1.5-3.3,3.3-3.3h3.5l0.9-6.2
	c0.2-2.5,2-3.8,4-3.8c2.2,0,4,0.9,4,3.8c0,0.9,0,1.8-0.2,2.7l-0.5,3.3h8.7c1.8,0,3.3,1.5,3.3,3.3s-1.5,3.3-3.3,3.3h-9.6l-2,14
	c-0.2,1.8-0.5,3.5-0.5,4.5c0,1.5,0.5,2.9,1.3,3.8c0.7,0.9,2,1.3,3.5,1.3c1.5,0,2.7-0.2,3.8-0.7c1.3-0.5,2-0.9,2.9-0.9
	c1.8,0,2.9,1.3,2.9,3.3c0,1.5-0.9,2.7-2.7,3.5c-2.2,1.3-5.6,2-9.3,2c-3.8,0-6.5-0.9-8.2-2.7c-2-1.8-2.9-4.5-2.9-7.6
	C343,270.9,343.2,268.7,343.6,266.9L343.6,266.9z M427.6,264.2l-2.2,15.1c-0.5,2.7-2,3.8-4,3.8c-2,0-4-0.9-4-3.8c0-0.9,0-2,0.2-2.9
	l1.8-12c0.2-1.8,0.5-3.8,0.5-4.7c0-2.5-0.5-4.5-1.5-5.6c-0.9-0.9-2.2-1.8-4.2-1.8c-2.7,0-4.7,0.9-6.5,2.9s-3.3,5.6-3.8,9.3l-2,15.1
	c-0.2,2.7-2,3.8-4,3.8c-2.2,0-4-0.9-4-3.8c0-0.9,0-2,0.2-2.9l1.8-12c0.2-1.8,0.5-3.8,0.5-4.7c0-2.5-0.5-4.5-1.8-5.6
	c-0.9-0.9-2.5-1.8-4.2-1.8c-2.7,0-4.7,0.9-6.5,2.9c-2.2,2.5-3.3,6-3.8,8.9l-2.2,15.5c-0.5,2.7-2.2,3.8-4.2,3.8s-4-0.9-4-3.8
	c0-0.9,0-2,0.2-2.9l3.8-27.3c0.2-2.2,2-3.3,3.8-3.3c2,0,3.5,0.9,3.5,3.5c0,0.9,0,1.8-0.2,2.5c1.3-1.8,2.9-2.9,4.7-4
	c2.2-1.5,4.7-2,7.5-2c2.7,0,4.9,0.7,6.5,2c1.5,1.3,2.5,2.9,2.9,4.9h0.2c1.3-1.8,2.9-3.5,5.3-4.9c2.5-1.5,5.3-2.2,8.2-2.2
	c3.8,0,6.5,0.9,8.2,2.9c2.5,2.5,3.3,6.2,3.3,10.2C428.1,260,427.8,262.4,427.6,264.2L427.6,264.2z M469.4,252.6l-3.8,27.1
	c-0.2,2.5-2,3.5-3.8,3.5c-2,0-3.5-0.9-3.5-3.3c-2.9,2.2-6,3.3-10,3.3c-2.7,0-6.5-0.9-9.3-4c-2.2-2.5-3.8-6.2-3.8-11.5
	c0-6.7,2.5-11.6,6.2-15.5c4.9-4.7,11.6-6.9,18.2-6.9c2.5,0,4.9,0.2,6.9,0.5c2,0.5,2.9,1.5,2.9,3.8
	C469.6,250.6,469.6,251.5,469.4,252.6L469.4,252.6z M456.9,252.6c-3.3,0.5-6.7,1.8-9.3,4.2c-2.5,2.5-4,6.2-4,10.4
	c0,2.9,0.7,5.3,2,6.5c1.5,1.8,3.5,2.5,5.3,2.5c2.7,0,4.9-0.7,7.5-3.3l2.9-20.7C460,252.2,458.7,252.2,456.9,252.6L456.9,252.6z
	 M498.1,252.9c-0.7,0-1.8-0.2-2.7-0.7c-1.5-0.5-2.7-0.9-4.9-0.9c-1.5,0-3.3,0.2-4.7,0.9c-0.9,0.7-1.8,1.8-1.8,2.9
	c0,2.2,1.5,3.3,4,4.7c2.9,1.5,6.2,2.7,8.7,4.9c1.8,1.5,2.9,3.8,2.9,6.7c0,3.8-1.5,6.5-4.2,8.4c-2.7,2-6.2,2.9-10.7,2.9
	c-4,0-7.3-0.5-9.6-2c-1.8-0.7-2.9-2-2.9-3.5c0-1.8,1.5-2.9,3.3-2.9c0.9,0,2.2,0.7,3.3,0.9c1.5,0.7,3.5,1.5,6.5,1.5
	c1.8,0,3.5-0.2,4.9-1.3c0.9-0.7,1.8-2,1.8-3.8c0-2-1.8-3.3-4-4.7c-2.9-1.8-6.7-3.3-9.3-5.6c-1.5-1.5-2.5-3.5-2.5-6
	c0-3.5,1.5-6,4-7.6c2.7-2,6.5-2.9,10.7-2.9c3.5,0,6,0.5,7.6,1.3c2,0.9,2.7,2,2.7,3.3C501.4,251.5,500,252.9,498.1,252.9z M568,235.8
	h-24.4l-2.2,15.1h18.9c2.2,0,4,1.8,4,4c0,2.2-1.8,4-4,4h-19.8l-2.2,15.5h26.2c2.2,0,4,1.8,4,4s-1.8,4-4,4h-31.1
	c-2.7,0-4.7-1.5-4.5-4.9l6.5-45.3c0.5-2.7,2.2-4.2,4.5-4.2h28.4c2.2,0,4,1.8,4,4C572,234,570.3,235.8,568,235.8L568,235.8z
	 M609.8,233.8l-6.2,44.6c-0.2,2-0.9,3.3-4.7,4c-2,0.2-4.5,0.5-6.9,0.5c-4.7,0-10-1.3-13.6-4.5c-2.9-2.7-4.9-6.5-4.9-12.2
	c0-4.9,1.8-9.5,4.7-12.9c3.3-3.8,8-6,12.9-6.9c3.3-0.9,6.9-0.9,9.3-0.9l2-14.7c0.2-2.5,2-3.8,4-3.8c2.2,0,4,1.3,4,3.8
	C610.2,232.2,609.8,233.1,609.8,233.8L609.8,233.8z M593.6,253.3c-3.3,0.5-6.7,2-9.3,4.7c-1.8,2.2-2.9,4.9-2.9,8.4
	c0,3.3,0.9,5.5,2.7,6.9c2.2,2.2,5.6,2.7,8,2.7c1.3,0,2.5,0,3.8-0.2l3.3-23.1C597.4,252.6,595.4,252.7,593.6,253.3L593.6,253.3z
	 M625.8,252.2l-3.8,27.1c-0.5,2.7-2.2,3.8-4.2,3.8c-2,0-4-0.9-4-3.8c0-0.9,0-2,0.2-2.9l3.8-27.1c0.5-2.7,2-3.8,4-3.8s4,0.9,4,3.8
	C626,250.2,626,251.3,625.8,252.2L625.8,252.2z M625.1,234.4c-2.7,0-4.9-2.2-4.9-4.9s2.2-4.9,4.9-4.9c2.7,0,4.9,2.2,4.9,4.9
	S627.8,234.4,625.1,234.4z M634.9,266.9l2-14.4h-2.7c-1.8,0-3.3-1.3-3.3-3.3c0-1.8,1.5-3.3,3.3-3.3h3.5l0.9-6.2c0.2-2.5,2-3.8,4-3.8
	c2.2,0,4,0.9,4,3.8c0,0.9,0,1.8-0.2,2.7l-0.5,3.3h8.7c1.8,0,3.3,1.5,3.3,3.3s-1.5,3.3-3.3,3.3h-9.6l-2,13.8
	c-0.2,1.8-0.5,3.5-0.5,4.5c0,1.5,0.5,2.9,1.3,3.8c0.7,0.9,2,1.3,3.5,1.3c1.5,0,2.7-0.2,3.8-0.7c1.3-0.5,2-0.9,2.9-0.9
	c1.8,0,2.9,1.3,2.9,3.3c0,1.5-0.9,2.7-2.7,3.5c-2.2,1.3-5.6,2-9.3,2c-3.8,0-6.5-0.9-8.2-2.7c-2-1.8-2.9-4.5-2.9-7.6
	C634.2,270.9,634.5,268.7,634.9,266.9L634.9,266.9z M673.1,252.2l-3.8,27.1c-0.5,2.7-2.2,3.8-4.2,3.8c-2,0-4-0.9-4-3.8
	c0-0.9,0-2,0.2-2.9l3.8-27.1c0.5-2.7,2-3.8,4-3.8s4,0.9,4,3.8C673.3,250.2,673.3,251.3,673.1,252.2L673.1,252.2z M672.5,234.4
	c-2.7,0-4.9-2.2-4.9-4.9s2.2-4.9,4.9-4.9s4.9,2.2,4.9,4.9C677.3,232.2,674.9,234.4,672.5,234.4z M710.7,276.2
	c-3.3,4.2-8.2,6.7-14.4,6.7c-4.9,0-9.3-1.8-12.2-4.7c-2.9-2.9-4.5-7.3-4.5-12c0-5.5,1.5-10.7,4.7-14.4c3.3-4.2,8.2-6.7,14.4-6.7
	c4.9,0,9.3,1.8,12.2,4.7c2.9,2.9,4.5,6.9,4.5,11.6C715.3,267.5,713.8,272.4,710.7,276.2z M705.1,255.3c-1.5-2-4-3.3-6.7-3.3
	c-3.5,0-6.5,2-8.2,4.9c-1.5,2.5-2.5,5.5-2.5,8.9c0,2.9,0.7,5.5,2.2,7.5s4,3.3,6.7,3.3c3.5,0,6.5-2,8.2-4.9c1.5-2.5,2.5-5.5,2.5-8.7
	C707.3,259.5,706.5,256.9,705.1,255.3z M722,276.2l3.8-27.3c0.2-2.2,2-3.3,3.8-3.3c2,0,3.5,0.9,3.5,3.5c0,0.9-0.2,1.5-0.2,2.5
	c2.7-4,7.3-6.2,12.2-6.2c3.8,0,6.5,1.3,8.2,3.5c2.5,2.9,2.9,6.7,2.9,9.6c0,1.5-0.2,3.8-0.5,5.6l-2.2,15.1c-0.2,2.5-2,3.8-4,3.8
	s-4-0.9-4-3.8c0-0.9,0-1.8,0.2-2.9l1.8-12c0.2-1.8,0.5-3.8,0.5-4.7c0-2.2-0.5-4.2-1.5-5.6c-0.9-0.9-2.5-2-4.5-2
	c-2.5,0-4.7,0.9-6.5,2.9c-2.2,2.5-3.3,6-3.8,8.9l-2.2,15.5c-0.5,2.5-2.2,3.8-4,3.8c-2.2,0-4-0.9-4-3.8
	C721.8,278.4,722,277.7,722,276.2L722,276.2z"/>
</svg>
